<svg width="16" height="16" viewBox="0 0 16 16" fill="none" xmlns="http://www.w3.org/2000/svg">
<path d="M12.1675 15.4981C12.5016 15.4991 15.5 13.2816 15.5 12.9987C15.5 12.7159 12.1446 10.602 11.8544 10.602C11.5641 10.602 10.59 11.7702 10.3273 11.9001C10.0636 12.0302 8.42299 11.9834 6.59469 10.1552C4.76545 8.32777 4.14107 6.22303 4.14107 5.8925C4.14107 5.56197 5.66633 4.54121 5.70846 4.30133C5.75059 4.06144 3.69793 0.5 3.36471 0.5C3.03148 0.5 0.5 3.57611 0.5 3.83246C0.5 4.08881 0.731621 7.38652 4.90736 11.5613C9.08311 15.7361 11.8333 15.4963 12.1675 15.4981Z" fill="white"/>
</svg>
